HIERARCHY
ROOT Hips
{
  OFFSET 0.367693 88.4352 14.4792
  CHANNELS 6 Xposition Yposition Zposition Zrotation Xrotation Yrotation
  JOINT Spine
  {
    OFFSET 0 10.1816 0.1315
    CHANNELS 6 Xposition Yposition Zposition Zrotation Xrotation Yrotation
    JOINT Spine1
    {
      OFFSET 0 10.0835 -1.0008
      CHANNELS 6 Xposition Yposition Zposition Zrotation Xrotation Yrotation
      JOINT Spine2
      {
        OFFSET 0 9.1 -1.3734
        CHANNELS 6 Xposition Yposition Zposition Zrotation Xrotation Yrotation
        JOINT Neck
        {
          OFFSET 0 16.6717 -2.5162
          CHANNELS 6 Xposition Yposition Zposition Zrotation Xrotation Yrotation
          JOINT Head
          {
            OFFSET 0 9.6179 1.685
            CHANNELS 6 Xposition Yposition Zposition Zrotation Xrotation Yrotation
            JOINT HeadTop_End
            {
              OFFSET 0 17.8152 2.585
              CHANNELS 6 Xposition Yposition Zposition Zrotation Xrotation Yrotation
              End Site
              {
                OFFSET 0 0 0
              }
            }
            JOINT LeftEye
            {
              OFFSET 3.0676 6.4095 9.2836
              CHANNELS 6 Xposition Yposition Zposition Zrotation Xrotation Yrotation
              End Site
              {
                OFFSET 0 0 0
              }
            }
            JOINT RightEye
            {
              OFFSET -3.0676 6.4095 9.2835
              CHANNELS 6 Xposition Yposition Zposition Zrotation Xrotation Yrotation
              End Site
              {
                OFFSET 0 0 0
              }
            }
          }
        }
        JOINT LeftShoulder
        {
          OFFSET 4.5704 10.946 -2.628
          CHANNELS 6 Xposition Yposition Zposition Zrotation Xrotation Yrotation
          JOINT LeftArm
          {
            OFFSET 10.5924 -0.5246 -2.2321
            CHANNELS 6 Xposition Yposition Zposition Zrotation Xrotation Yrotation
            JOINT LeftForeArm
            {
              OFFSET 27.8415 -0.0001 0
              CHANNELS 6 Xposition Yposition Zposition Zrotation Xrotation Yrotation
              JOINT LeftHand
              {
                OFFSET 28.3288 0 0
                CHANNELS 6 Xposition Yposition Zposition Zrotation Xrotation Yrotation
                JOINT LeftHandThumb1
                {
                  OFFSET 2.4661 -1.575 2.6824
                  CHANNELS 6 Xposition Yposition Zposition Zrotation Xrotation Yrotation
                  JOINT LeftHandThumb2
                  {
                    OFFSET 3.2298 -1.8647 1.8647
                    CHANNELS 6 Xposition Yposition Zposition Zrotation Xrotation Yrotation
                    JOINT LeftHandThumb3
                    {
                      OFFSET 2.6526 -1.5315 1.5315
                      CHANNELS 6 Xposition Yposition Zposition Zrotation Xrotation Yrotation
                      End Site
                      {
                        OFFSET 1.9546 -1.1285 1.1285
                      }
                    }
                  }
                }
                JOINT LeftHandIndex1
                {
                  OFFSET 9.1093 -0.5171 2.2601
                  CHANNELS 6 Xposition Yposition Zposition Zrotation Xrotation Yrotation
                  JOINT LeftHandIndex2
                  {
                    OFFSET 3.6764 0 0
                    CHANNELS 6 Xposition Yposition Zposition Zrotation Xrotation Yrotation
                    JOINT LeftHandIndex3
                    {
                      OFFSET 2.8831 0 0
                      CHANNELS 6 Xposition Yposition Zposition Zrotation Xrotation Yrotation
                      End Site
                      {
                        OFFSET 2.3927 0 0
                      }
                    }
                  }
                }
                JOINT LeftHandMiddle1
                {
                  OFFSET 9.5334 0 0
                  CHANNELS 6 Xposition Yposition Zposition Zrotation Xrotation Yrotation
                  JOINT LeftHandMiddle2
                  {
                    OFFSET 3.6982 0 0
                    CHANNELS 6 Xposition Yposition Zposition Zrotation Xrotation Yrotation
                    JOINT LeftHandMiddle3
                    {
                      OFFSET 2.9509 0 0
                      CHANNELS 6 Xposition Yposition Zposition Zrotation Xrotation Yrotation
                      End Site
                      {
                        OFFSET 2.8339 0 0
                      }
                    }
                  }
                }
                JOINT LeftHandRing1
                {
                  OFFSET 9.1045 -0.0439 -1.8651
                  CHANNELS 6 Xposition Yposition Zposition Zrotation Xrotation Yrotation
                  JOINT LeftHandRing2
                  {
                    OFFSET 3.154 0 0
                    CHANNELS 6 Xposition Yposition Zposition Zrotation Xrotation Yrotation
                    JOINT LeftHandRing3
                    {
                      OFFSET 2.9377 0 0
                      CHANNELS 6 Xposition Yposition Zposition Zrotation Xrotation Yrotation
                      End Site
                      {
                        OFFSET 2.6475 0 0
                      }
                    }
                  }
                }
                JOINT LeftHandPinky1
                {
                  OFFSET 8.0778 -0.4887 -3.8061
                  CHANNELS 6 Xposition Yposition Zposition Zrotation Xrotation Yrotation
                  JOINT LeftHandPinky2
                  {
                    OFFSET 3.6 0 0
                    CHANNELS 6 Xposition Yposition Zposition Zrotation Xrotation Yrotation
                    JOINT LeftHandPinky3
                    {
                      OFFSET 2.1142 0 0
                      CHANNELS 6 Xposition Yposition Zposition Zrotation Xrotation Yrotation
                      End Site
                      {
                        OFFSET 1.9757 0 0
                      }
                    }
                  }
                }
              }
            }
          }
        }
        JOINT RightShoulder
        {
          OFFSET -4.57 10.9462 -2.628
          CHANNELS 6 Xposition Yposition Zposition Zrotation Xrotation Yrotation
          JOINT RightArm
          {
            OFFSET -10.5928 -0.5248 -2.2321
            CHANNELS 6 Xposition Yposition Zposition Zrotation Xrotation Yrotation
            JOINT RightForeArm
            {
              OFFSET -27.8415 0 0
              CHANNELS 6 Xposition Yposition Zposition Zrotation Xrotation Yrotation
              JOINT RightHand
              {
                OFFSET -28.3288 0 0.0001
                CHANNELS 6 Xposition Yposition Zposition Zrotation Xrotation Yrotation
                JOINT RightHandPinky1
                {
                  OFFSET -8.0767 -0.4885 -3.806
                  CHANNELS 6 Xposition Yposition Zposition Zrotation Xrotation Yrotation
                  JOINT RightHandPinky2
                  {
                    OFFSET -3.6 0 0.0001
                    CHANNELS 6 Xposition Yposition Zposition Zrotation Xrotation Yrotation
                    JOINT RightHandPinky3
                    {
                      OFFSET -2.1142 0 0
                      CHANNELS 6 Xposition Yposition Zposition Zrotation Xrotation Yrotation
                      End Site
                      {
                        OFFSET -1.9757 0 0
                      }
                    }
                  }
                }
                JOINT RightHandRing1
                {
                  OFFSET -9.1036 -0.0439 -1.8651
                  CHANNELS 6 Xposition Yposition Zposition Zrotation Xrotation Yrotation
                  JOINT RightHandRing2
                  {
                    OFFSET -3.154 0 0
                    CHANNELS 6 Xposition Yposition Zposition Zrotation Xrotation Yrotation
                    JOINT RightHandRing3
                    {
                      OFFSET -2.9377 0 0
                      CHANNELS 6 Xposition Yposition Zposition Zrotation Xrotation Yrotation
                      End Site
                      {
                        OFFSET -2.6475 0 0
                      }
                    }
                  }
                }
                JOINT RightHandMiddle1
                {
                  OFFSET -9.5325 0 0
                  CHANNELS 6 Xposition Yposition Zposition Zrotation Xrotation Yrotation
                  JOINT RightHandMiddle2
                  {
                    OFFSET -3.6982 0 0
                    CHANNELS 6 Xposition Yposition Zposition Zrotation Xrotation Yrotation
                    JOINT RightHandMiddle3
                    {
                      OFFSET -2.9509 0 0
                      CHANNELS 6 Xposition Yposition Zposition Zrotation Xrotation Yrotation
                      End Site
                      {
                        OFFSET -2.8339 0 0.0001
                      }
                    }
                  }
                }
                JOINT RightHandIndex1
                {
                  OFFSET -9.1083 -0.5168 2.2601
                  CHANNELS 6 Xposition Yposition Zposition Zrotation Xrotation Yrotation
                  JOINT RightHandIndex2
                  {
                    OFFSET -3.6764 0 0
                    CHANNELS 6 Xposition Yposition Zposition Zrotation Xrotation Yrotation
                    JOINT RightHandIndex3
                    {
                      OFFSET -2.8831 0 0
                      CHANNELS 6 Xposition Yposition Zposition Zrotation Xrotation Yrotation
                      End Site
                      {
                        OFFSET -2.3927 0 0
                      }
                    }
                  }
                }
                JOINT RightHandThumb1
                {
                  OFFSET -2.4648 -1.5727 2.6826
                  CHANNELS 6 Xposition Yposition Zposition Zrotation Xrotation Yrotation
                  JOINT RightHandThumb2
                  {
                    OFFSET -3.2298 -1.8647 1.8647
                    CHANNELS 6 Xposition Yposition Zposition Zrotation Xrotation Yrotation
                    JOINT RightHandThumb3
                    {
                      OFFSET -2.6526 -1.5314 1.5314
                      CHANNELS 6 Xposition Yposition Zposition Zrotation Xrotation Yrotation
                      End Site
                      {
                        OFFSET -1.9546 -1.1285 1.1285
                      }
                    }
                  }
                }
              }
            }
          }
        }
      }
    }
  }
  JOINT LeftUpLeg
  {
    OFFSET 8.2078 -6.7517 -1.5996
    CHANNELS 6 Xposition Yposition Zposition Zrotation Xrotation Yrotation
    JOINT LeftLeg
    {
      OFFSET 0 -44.3705 0.2846
      CHANNELS 6 Xposition Yposition Zposition Zrotation Xrotation Yrotation
      JOINT LeftFoot
      {
        OFFSET 0 -44.4279 -2.9822
        CHANNELS 6 Xposition Yposition Zposition Zrotation Xrotation Yrotation
        JOINT LeftToeBase
        {
          OFFSET 0 -8.7287 10.7106
          CHANNELS 6 Xposition Yposition Zposition Zrotation Xrotation Yrotation
          End Site
          {
            OFFSET 0 -0.0007 9.2781
          }
        }
      }
    }
  }
  JOINT RightUpLeg
  {
    OFFSET -8.2078 -6.7517 -1.5996
    CHANNELS 6 Xposition Yposition Zposition Zrotation Xrotation Yrotation
    JOINT RightLeg
    {
      OFFSET 0 -44.3705 0.2862
      CHANNELS 6 Xposition Yposition Zposition Zrotation Xrotation Yrotation
      JOINT RightFoot
      {
        OFFSET 0 -44.4277 -2.9838
        CHANNELS 6 Xposition Yposition Zposition Zrotation Xrotation Yrotation
        JOINT RightToeBase
        {
          OFFSET 0 -8.7287 10.7106
          CHANNELS 6 Xposition Yposition Zposition Zrotation Xrotation Yrotation
          End Site
          {
            OFFSET 0 -0.0007 9.2781
          }
        }
      }
    }
  }
}
MOTION
Frames:	4
Frame Time:	0.0333333
-1.31302 88.2895 1.16251 7.35907 2.98893 -50.437 0 10.1816 0.1315 -2.15208 10.8646 3.23473 0 10.0835 -1.0008 -4.28543 5.66852 6.0061 -8.88178e-016 9.1 -1.3734 -3.04495 -6.11441 6.01239 0 16.6717 -2.5162 -0.262219 2.27594 9.37387 -8.88178e-016 9.6179 1.685 -3.25404 -5.52549 22.8874 -4.44089e-016 17.8152 2.585 1.2921e-015 0 -0 3.0676 6.4095 9.2836 1.2921e-015 0 -0 -3.0676 6.4095 9.2835 1.2921e-015 0 -0 4.5704 10.946 -2.628 -2.76169 -1.07387 -16.2777 10.5924 -0.5246 -2.2321 -46.1876 -8.98758 -6.12767 27.8415 -0.0001 1.77636e-015 -14.7925 -15.3125 -30.6581 28.3288 0 7.10543e-015 6.86002 2.19912 -2.79139 2.4661 -1.575 2.6824 13.5641 15.7937 -13.5307 3.2298 -1.8647 1.8647 -8.25011 -2.77209 10.9711 2.6526 -1.5315 1.5315 -0.818871 5.58599 8.56244 9.1093 -0.5171 2.2601 -0.188819 -1.21357 -5.77606 3.6764 0 7.10543e-015 -4.60203 0.149445 -0.188329 2.8831 1.42109e-014 7.10543e-015 -7.56774 0.114515 -0.440356 9.5334 0 0 -4.58583 1.50532 4.79703 3.6982 1.42109e-014 0 -12.9849 0.692054 -0.882737 2.9509 1.42109e-014 -7.10543e-015 -16.5512 0.987193 -1.11911 9.1045 -0.0439 -1.8651 -13.9714 1.00698 8.42655 3.154 0 7.10543e-015 -18.8952 -0.485114 -0.773386 2.9377 0 7.10543e-015 -22.0569 -0.406544 -0.935888 8.0778 -0.4887 -3.8061 -22.2479 -0.5351 6.58593 3.6 0 0 -16.7476 -0.718976 -0.444243 2.1142 0 0 -34.6943 -1.84218 -1.26969 -4.57 10.9462 -2.628 1.35879 -4.46212 24.4947 -10.5928 -0.5248 -2.2321 49.7226 -24.6059 -26.1814 -27.8415 0 0 14.1021 -6.46887 48.229 -28.3288 -1.42109e-014 0.0001 6.07217 4.27866 35.3881 -8.0767 -0.4885 -3.806 47.8408 -12.123 -0.591791 -3.6 0 0.0001 45.5832 0.742361 1.47468 -2.1142 0 -1.42109e-014 24.9836 -0.118785 0.954172 -9.1036 -0.0439 -1.8651 58.5291 -1.72557 5.18797 -3.154 0 0 47.9886 0.749482 1.68941 -2.9377 -3.55271e-015 0 53.637 1.00953 1.76998 -9.5325 0 7.10543e-015 44.9822 1.25246 1.44164 -3.6982 0 -7.10543e-015 68.3323 2.5655 2.29258 -2.9509 0 0 41.0833 0.493036 1.99775 -9.1083 -0.5168 2.2601 37.0054 9.08896 2.67702 -3.6764 0 -7.10543e-015 68.9197 3.96316 0.421427 -2.8831 -5.32907e-015 7.10543e-015 62.1834 2.92384 0.993777 -2.4648 -1.5727 2.6826 -36.858 38.4689 46.239 -3.2298 -1.8647 1.8647 7.09911 -2.22568 -14.0125 -2.6526 -1.5314 1.5314 8.34674 17.0019 -32.0101 8.2078 -6.7517 -1.5996 42.1202 -31.9695 62.5846 0 -44.3705 0.2846 4.14085 43.7293 -22.6824 0 -44.4279 -2.9822 -8.86991 1.0424 1.1654 -7.10543e-015 -8.7287 10.7106 1.19026 -0.867687 -6.09126 -8.2078 -6.7517 -1.5996 -26.8354 -30.148 -15.7884 0 -44.3705 0.2862 -11.0146 52.0989 10.3828 0 -44.4277 -2.9838 25.5067 -25.4675 9.0511 0 -8.7287 10.7106 1.46945 0.604414 2.95553 
-1.33455 88.5143 1.34495 6.71908 1.81305 -51.1438 -8.88178e-016 10.1816 0.1315 -1.7436 10.7839 2.79973 0 10.0835 -1.0008 -4.20113 5.46747 5.71541 -4.44089e-016 9.1 -1.3734 -2.87159 -6.22586 5.79879 0 16.6717 -2.5162 -0.527877 1.93172 10.335 -1.33227e-015 9.6179 1.685 -4.19903 -5.43935 23.3468 4.44089e-016 17.8152 2.585 7.45443e-016 0 -0 3.0676 6.4095 9.2836 7.45443e-016 0 -0 -3.0676 6.4095 9.2835 7.45443e-016 0 -0 4.5704 10.946 -2.628 -2.9136 -1.0379 -15.195 10.5924 -0.5246 -2.2321 -46.2789 -9.08724 -5.89205 27.8415 -0.0001 3.55271e-015 -14.5718 -13.801 -31.1742 28.3288 0 0 5.95107 2.03636 -2.97353 2.4661 -1.575 2.6824 13.8077 15.3452 -13.839 3.2298 -1.8647 1.8647 -8.17096 -2.73514 10.9247 2.6526 -1.5315 1.5315 -0.851495 5.38677 8.1912 9.1093 -0.5171 2.2601 -0.177345 -1.0713 -5.80644 3.6764 0 0 -4.61268 0.390032 -0.188854 2.8831 0 0 -7.28245 -0.106664 -0.406691 9.5334 0 1.42109e-014 -4.41784 1.60517 4.32037 3.6982 0 -7.10543e-015 -12.9704 0.623668 -0.857551 2.9509 0 -1.42109e-014 -16.4303 0.892277 -1.0813 9.1045 -0.0439 -1.8651 -13.7607 0.834231 8.47856 3.154 0 7.10543e-015 -18.9054 -0.963466 -0.895343 2.9377 -7.10543e-015 7.10543e-015 -21.9481 -0.662287 -0.989127 8.0778 -0.4887 -3.8061 -21.8978 -0.483074 7.0862 3.6 7.10543e-015 7.10543e-015 -16.7888 -1.3612 -0.69276 2.1142 0 0 -34.445 -1.86763 -1.26742 -4.57 10.9462 -2.628 0.93329 -3.87564 21.4965 -10.5928 -0.5248 -2.2321 49.4955 -24.7037 -26.0338 -27.8415 2.84217e-014 -3.55271e-015 13.8978 -4.49378 48.5927 -28.3288 0 0.0001 -0.888349 7.29804 32.7939 -8.0767 -0.4885 -3.806 47.8408 -12.123 -0.591791 -3.6 7.10543e-015 0.0001 45.5832 0.742361 1.47468 -2.1142 1.77636e-015 7.10543e-015 24.9836 -0.118785 0.954172 -9.1036 -0.0439 -1.8651 58.5291 -1.72557 5.18797 -3.154 0 1.42109e-014 47.9886 0.749482 1.68941 -2.9377 -3.55271e-015 7.10543e-015 53.637 1.00953 1.76998 -9.5325 1.42109e-014 7.10543e-015 44.9822 1.25246 1.44164 -3.6982 0 7.10543e-015 68.3323 2.5655 2.29258 -2.9509 0 0 41.0833 0.493036 1.99775 -9.1083 -0.5168 2.2601 37.0054 9.08896 2.67702 -3.6764 0 7.10543e-015 68.9197 3.96316 0.421427 -2.8831 -3.55271e-015 7.10543e-015 62.1834 2.92384 0.993777 -2.4648 -1.5727 2.6826 -36.858 38.4689 46.239 -3.2298 -1.8647 1.8647 7.09911 -2.22568 -14.0125 -2.6526 -1.5314 1.5314 8.34674 17.0019 -32.0101 8.2078 -6.7517 -1.5996 40.9236 -30.4416 60.8146 -1.77636e-015 -44.3705 0.2846 3.4745 43.5835 -21.3316 3.55271e-015 -44.4279 -2.9822 -9.03596 0.705404 1.28588 0 -8.7287 10.7106 1.19579 -0.807637 -6.20692 -8.2078 -6.7517 -1.5996 -26.4621 -29.0155 -14.4359 -3.55271e-015 -44.3705 0.2862 -11.5624 51.4502 11.4595 0 -44.4277 -2.9838 25.4747 -25.5859 8.33188 7.10543e-015 -8.7287 10.7106 1.43651 0.899804 2.901 
-1.32006 88.7768 1.74395 6.0331 0.674947 -51.8855 8.88178e-016 10.1816 0.1315 -1.15976 10.6616 1.99748 0 10.0835 -1.0008 -3.85698 5.20984 4.78029 4.44089e-016 9.1 -1.3734 -2.55723 -6.39928 4.94953 0 16.6717 -2.5162 -0.890376 1.79509 12.191 0 9.6179 1.685 -5.76619 -5.53691 24.002 -8.88178e-016 17.8152 2.585 -4.96962e-017 -4.77083e-015 3.97569e-016 3.0676 6.4095 9.2836 -4.96962e-017 -4.77083e-015 3.97569e-016 -3.0676 6.4095 9.2835 -4.96962e-017 -4.77083e-015 3.97569e-016 4.5704 10.946 -2.628 -2.76088 -0.938266 -13.2416 10.5924 -0.5246 -2.2321 -46.4344 -9.43559 -4.95885 27.8415 -0.0001 3.55271e-015 -13.7203 -10.9662 -31.827 28.3288 0 0 4.18314 0.154554 -3.26829 2.4661 -1.575 2.6824 13.9045 14.8662 -14.1566 3.2298 -1.8647 1.8647 -8.05051 -2.6253 10.9202 2.6526 -1.5315 1.5315 -0.914836 5.30142 7.91241 9.1093 -0.5171 2.2601 -0.266981 -0.787947 -5.86242 3.6764 0 0 -4.66469 0.665388 -0.191118 2.8831 0 0 -7.02169 -0.357938 -0.371842 9.5334 -1.42109e-014 -7.10543e-015 -4.28125 1.96182 3.84418 3.6982 0 0 -12.8989 0.548438 -0.827736 2.9509 0 -7.10543e-015 -16.5016 0.79218 -1.0496 9.1045 -0.0439 -1.8651 -13.4801 0.499936 8.67443 3.154 0 0 -18.9579 -1.49298 -1.03355 2.9377 7.10543e-015 0 -21.9903 -0.959678 -1.05718 8.0778 -0.4887 -3.8061 -21.4956 -0.204596 7.74248 3.6 0 -7.10543e-015 -16.8536 -2.05044 -0.969294 2.1142 7.10543e-015 -7.10543e-015 -34.4043 -1.90132 -1.28108 -4.57 10.9462 -2.628 0.570988 -2.92648 17.6217 -10.5928 -0.5248 -2.2321 48.118 -23.5551 -26.8726 -27.8415 -1.42109e-014 0 15.1167 0.162965 52.0471 -28.3288 0 0.0001 -8.91297 11.8178 29.2125 -8.0767 -0.4885 -3.806 47.8408 -12.123 -0.591791 -3.6 -1.42109e-014 0.0001 45.5832 0.742361 1.47468 -2.1142 -3.55271e-015 0 24.9836 -0.118785 0.954172 -9.1036 -0.0439 -1.8651 58.5291 -1.72557 5.18797 -3.154 7.10543e-015 -7.10543e-015 47.9886 0.749482 1.68941 -2.9377 0 -7.10543e-015 53.637 1.00953 1.76998 -9.5325 0 -7.10543e-015 44.9822 1.25246 1.44164 -3.6982 0 0 68.3323 2.5655 2.29258 -2.9509 0 -7.10543e-015 41.0833 0.493036 1.99775 -9.1083 -0.5168 2.2601 37.0054 9.08896 2.67702 -3.6764 0 0 68.9197 3.96316 0.421427 -2.8831 3.55271e-015 -7.10543e-015 62.1834 2.92384 0.993777 -2.4648 -1.5727 2.6826 -36.858 38.4689 46.239 -3.2298 -1.8647 1.8647 7.09911 -2.22568 -14.0125 -2.6526 -1.5314 1.5314 8.34674 17.0019 -32.0101 8.2078 -6.7517 -1.5996 39.7692 -28.8381 59.2316 0 -44.3705 0.2846 2.83545 43.6039 -20.0267 0 -44.4279 -2.9822 -9.05792 0.174098 1.31274 3.55271e-015 -8.7287 10.7106 1.19044 -0.707457 -6.34508 -8.2078 -6.7517 -1.5996 -26.408 -27.6155 -13.144 -3.55271e-015 -44.3705 0.2862 -11.4173 50.5603 12.1064 0 -44.4277 -2.9838 25.3628 -25.5911 7.65836 0 -8.7287 10.7106 1.29782 1.20981 2.82386 
-1.26144 89.0801 2.38031 5.10569 -0.750808 -53.1064 0 10.1816 0.1315 -0.427221 10.5804 0.878044 0 10.0835 -1.0008 -3.27617 5.07338 3.28377 -4.44089e-016 9.1 -1.3734 -2.10509 -6.45912 3.54081 8.88178e-016 16.6717 -2.5162 -1.1105 1.83922 15.1553 1.33227e-015 9.6179 1.685 -8.62431 -6.16153 25.4296 0 17.8152 2.585 -1.49089e-016 1.59028e-015 -3.97569e-016 3.0676 6.4095 9.2836 -1.49089e-016 1.59028e-015 -3.97569e-016 -3.0676 6.4095 9.2835 -1.49089e-016 1.59028e-015 -3.97569e-016 4.5704 10.946 -2.628 -2.44827 -0.803308 -10.1992 10.5924 -0.5246 -2.2321 -46.5763 -9.96574 -3.31769 27.8415 -0.0001 1.77636e-015 -12.189 -7.06171 -32.0086 28.3288 0 0 1.4534 -2.97783 -5.06121 2.4661 -1.575 2.6824 13.9194 14.3717 -14.4798 3.2298 -1.8647 1.8647 -7.908 -2.47589 10.9379 2.6526 -1.5315 1.5315 -0.994013 5.27755 7.68332 9.1093 -0.5171 2.2601 -0.410451 -0.428776 -5.93229 3.6764 0 7.10543e-015 -4.73869 0.95966 -0.19513 2.8831 0 -7.10543e-015 -6.77414 -0.625445 -0.33642 9.5334 -1.42109e-014 0 -4.15542 2.45705 3.36827 3.6982 0 0 -12.7966 0.469553 -0.795338 2.9509 0 7.10543e-015 -16.6762 0.689294 -1.02121 9.1045 -0.0439 -1.8651 -13.1585 0.0791817 8.94816 3.154 0 -7.10543e-015 -19.0378 -2.05 -1.1808 2.9377 0 -7.10543e-015 -22.1144 -1.27946 -1.13324 8.0778 -0.4887 -3.8061 -21.0737 0.194638 8.48307 3.6 1.42109e-014 0 -16.9351 -2.76499 -1.26116 2.1142 -7.10543e-015 0 -34.476 -1.94377 -1.29729 -4.57 10.9462 -2.628 0.161683 -1.73385 12.2208 -10.5928 -0.5248 -2.2321 45.4067 -20.781 -26.868 -27.8415 2.84217e-014 -3.55271e-015 17.1288 6.63904 58.9678 -28.3288 0 0.0001 -16.4144 18.5279 23.592 -8.0767 -0.4885 -3.806 47.8408 -12.123 -0.591791 -3.6 0 0.0001 45.5832 0.742361 1.47468 -2.1142 -2.66454e-015 0 24.9836 -0.118785 0.954172 -9.1036 -0.0439 -1.8651 58.5291 -1.72557 5.18797 -3.154 0 0 47.9886 0.749482 1.68941 -2.9377 7.10543e-015 0 53.637 1.00953 1.76998 -9.5325 -1.42109e-014 0 44.9822 1.25246 1.44164 -3.6982 0 1.06581e-014 68.3323 2.5655 2.29258 -2.9509 3.55271e-015 0 41.0833 0.493036 1.99775 -9.1083 -0.5168 2.2601 37.0054 9.08896 2.67702 -3.6764 1.42109e-014 7.10543e-015 68.9197 3.96316 0.421427 -2.8831 -7.10543e-015 7.10543e-015 62.1834 2.92384 0.993777 -2.4648 -1.5727 2.6826 -36.858 38.4689 46.239 -3.2298 -1.8647 1.8647 7.09911 -2.22568 -14.0125 -2.6526 -1.5314 1.5314 8.34674 17.0019 -32.0101 8.2078 -6.7517 -1.5996 38.3818 -26.7589 57.3026 0 -44.3705 0.2846 2.2449 43.8323 -18.5803 -3.55271e-015 -44.4279 -2.9822 -9.17031 -0.74422 1.53404 0 -8.7287 10.7106 1.20675 -0.687613 -6.43834 -8.2078 -6.7517 -1.5996 -26.5962 -25.8589 -11.5422 3.55271e-015 -44.3705 0.2862 -10.9053 49.3727 12.7385 -7.10543e-015 -44.4277 -2.9838 25.2181 -25.4626 7.04558 -7.10543e-015 -8.7287 10.7106 0.909839 1.44259 2.7388 
